<?xml version="1.0" standalone="no"?>
<!DOCTYPE svg PUBLIC "-//W3C//DTD SVG 20010904//EN"
 "http://www.w3.org/TR/2001/REC-SVG-20010904/DTD/svg10.dtd">
<svg version="1.0" xmlns="http://www.w3.org/2000/svg"
 width="500.000000pt" height="500.000000pt" viewBox="0 0 500.000000 500.000000"
 preserveAspectRatio="xMidYMid meet">

<g transform="translate(0.000000,500.000000) scale(0.100000,-0.100000)"
fill="#000000" stroke="none">
<path d="M1874 3088 c-3 -4 2 -11 10 -14 23 -9 24 -272 1 -280 -32 -13 -12
-24 42 -24 l56 0 -21 23 c-16 17 -22 36 -22 70 0 55 9 60 110 55 l65 -3 3 -58
c2 -44 0 -59 -12 -63 -33 -13 -14 -24 39 -24 58 0 68 7 35 28 -18 11 -20 23
-20 126 0 98 3 117 20 139 11 14 20 27 20 29 0 2 -95 2 -109 -1 -3 -1 5 -10
17 -21 25 -23 31 -97 10 -118 -7 -7 -43 -12 -90 -12 -86 0 -83 -3 -79 75 2 26
9 46 23 58 11 9 19 18 17 18 -19 6 -111 4 -115 -3z"/>
<path d="M3266 2990 c-69 -21 -139 -97 -152 -166 -11 -61 24 -73 72 -24 36 37
42 37 46 3 4 -37 31 -41 63 -9 32 32 33 51 0 30 -23 -15 -25 -15 -31 0 -3 8 6
46 20 83 37 97 36 99 -18 83z m-6 -58 c0 -24 -53 -97 -81 -112 -52 -28 -43 39
14 98 34 36 67 42 67 14z"/>
<path d="M2304 2971 c-56 -34 -86 -148 -48 -185 20 -20 63 -20 91 -1 61 43 86
158 41 189 -29 21 -46 20 -84 -3z m64 -23 c29 -29 0 -117 -45 -137 -60 -28
-70 58 -14 118 32 34 41 37 59 19z"/>
<path d="M2460 2960 c-22 -19 -29 -29 -19 -30 8 0 20 5 27 12 20 20 15 -43 -8
-90 -20 -41 -26 -82 -12 -82 15 0 29 16 61 70 81 134 132 147 75 19 -28 -62
-27 -97 2 -81 9 5 38 40 63 78 77 114 116 117 62 5 -19 -38 -31 -74 -27 -80
10 -16 38 -14 64 5 28 19 30 39 3 24 -32 -17 -32 3 -1 61 66 123 20 154 -74
51 -41 -44 -54 -37 -36 18 7 22 11 43 7 46 -10 11 -42 -6 -85 -46 -24 -22 -46
-40 -49 -40 -2 0 -3 19 -1 41 2 23 -2 44 -7 46 -6 2 -26 -10 -45 -27z"/>
<path d="M2868 2975 c-38 -21 -72 -97 -64 -143 3 -20 14 -43 23 -50 25 -18 84
-8 106 19 27 34 20 42 -18 19 -38 -24 -70 -20 -78 9 -8 31 11 51 49 51 24 0
43 8 59 25 30 29 31 39 5 65 -23 23 -45 25 -82 5z m52 -25 c18 -12 3 -43 -25
-48 -27 -6 -37 11 -19 36 17 24 22 26 44 12z"/>
<path d="M3412 2967 c-29 -30 -28 -63 3 -103 14 -18 25 -37 25 -43 0 -14 -47
-14 -55 -1 -10 17 -25 11 -25 -10 0 -37 74 -55 104 -24 25 24 19 50 -19 93
-39 43 -42 53 -20 71 13 10 19 10 33 -4 23 -20 42 -21 42 -2 0 16 -37 46 -55
46 -7 0 -21 -10 -33 -23z"/>
<path d="M1273 2693 c4 -6 -3 -8 -18 -5 -14 2 -33 1 -42 -3 -10 -5 -26 -7 -35
-6 -24 3 -139 -65 -162 -96 -18 -25 -18 -25 3 -18 22 7 22 6 4 -14 -19 -23
-28 -28 -17 -9 4 7 3 8 -4 4 -21 -13 -14 -71 11 -94 26 -25 48 -27 80 -10 26
14 52 38 40 38 -4 0 -1 5 7 10 12 8 9 10 -13 10 -19 0 -26 -4 -21 -12 5 -7 3
-8 -5 -4 -7 5 -10 10 -7 13 3 3 1 14 -5 24 -7 14 -4 29 10 58 11 21 17 42 13
46 -4 3 -2 5 3 4 13 -4 85 23 85 31 0 4 20 7 45 9 46 2 59 -11 27 -28 -10 -5
-30 -34 -45 -65 -37 -74 -37 -147 0 -230 37 -84 82 -149 99 -142 7 3 16 1 19
-5 4 -5 3 -9 -2 -8 -18 3 -28 -1 -18 -9 13 -9 75 -111 75 -123 0 -5 4 -9 8 -9
4 0 8 -10 9 -21 1 -12 8 -29 15 -38 7 -9 13 -28 12 -43 -1 -24 1 -26 14 -16 9
8 10 14 3 16 -6 2 -11 8 -11 13 0 6 4 8 9 5 9 -6 44 59 44 82 0 6 4 12 9 12 9
0 44 80 40 93 -1 4 3 7 10 7 6 0 8 3 5 6 -4 4 2 19 12 33 20 30 35 62 33 74
-1 4 2 7 6 7 11 0 35 51 27 58 -3 3 1 12 9 21 24 28 58 220 36 206 -5 -3 -7 0
-4 9 8 20 -32 106 -49 106 -22 0 -60 -47 -51 -62 6 -10 5 -10 -7 -2 -11 9 -19
7 -34 -9 -11 -11 -14 -17 -7 -13 7 4 20 2 29 -6 9 -7 19 -12 22 -10 3 2 7 -2
9 -10 2 -9 0 -8 -8 2 -12 15 -11 6 6 -55 4 -11 8 -50 9 -87 2 -38 7 -73 11
-79 4 -7 3 -9 -4 -5 -7 4 -13 -10 -17 -39 -4 -25 -11 -45 -16 -45 -5 0 -9 -8
-9 -18 0 -10 -9 -35 -20 -56 -10 -22 -17 -43 -14 -47 3 -5 1 -9 -3 -9 -9 0
-39 -69 -35 -82 1 -5 -3 -8 -9 -8 -5 0 -7 -4 -4 -10 3 -5 3 -10 0 -10 -3 0
-11 14 -17 30 -9 26 -12 29 -27 18 -14 -11 -14 -10 1 7 16 19 15 22 -6 57 -13
21 -25 35 -29 32 -3 -3 -3 3 -1 14 3 10 0 25 -8 33 -7 8 -21 28 -30 44 -9 17
-21 30 -27 30 -5 0 -13 4 -18 9 -5 5 -3 6 5 2 18 -11 15 3 -6 22 -10 10 -11
13 -3 7 12 -9 12 -7 2 13 -6 12 -16 22 -22 22 -6 0 -8 4 -5 9 3 5 -2 26 -11
47 -15 38 -27 207 -13 199 4 -2 22 10 41 28 29 27 41 32 74 30 67 -5 67 -5 50
-23 -12 -14 -13 -19 -3 -27 7 -5 19 -9 27 -9 17 1 28 26 12 26 -6 0 -11 6 -11
14 0 19 -11 26 -52 32 -82 13 -141 16 -135 7z m-173 -84 c0 -5 -4 -9 -8 -9 -5
0 -9 7 -9 15 0 8 4 12 9 9 4 -3 8 -9 8 -15z m-32 -164 c-3 -3 -9 2 -12 12 -6
14 -5 15 5 6 7 -7 10 -15 7 -18z m27 15 c3 -5 1 -10 -4 -10 -6 0 -11 5 -11 10
0 6 2 10 4 10 3 0 8 -4 11 -10z m342 -366 c-3 -3 -12 -4 -19 -1 -8 3 -5 6 6 6
11 1 17 -2 13 -5z"/>
<path d="M1497 2550 c-15 -16 -25 -30 -22 -30 3 0 -3 -10 -15 -22 -11 -12 -20
-29 -20 -38 0 -9 -3 -20 -7 -24 -4 -4 -8 -22 -10 -40 -1 -25 5 -40 23 -57 25
-24 26 -24 40 -4 8 11 18 20 22 20 4 0 6 6 6 13 -1 6 2 12 7 12 5 0 9 5 9 10
0 6 -3 9 -7 8 -5 -1 -18 2 -31 6 -20 7 -23 14 -21 49 2 23 6 44 9 47 14 12 52
72 48 76 -3 2 -17 -9 -31 -26z m-40 -112 c-3 -8 -6 -5 -6 6 -1 11 2 17 5 13 3
-3 4 -12 1 -19z"/>
<path d="M3267 2545 c-14 -7 -29 -10 -32 -7 -4 4 -5 0 -3 -8 2 -8 -2 -14 -9
-13 -7 2 -10 -3 -7 -11 3 -8 -4 -20 -15 -28 -36 -25 -50 -92 -18 -84 7 1 9 1
4 -1 -4 -3 -4 -10 -1 -16 5 -8 2 -8 -7 1 -7 6 -16 12 -19 12 -4 0 -7 -6 -8
-12 -1 -7 -4 -31 -7 -53 -7 -50 14 -177 28 -168 6 4 8 0 4 -10 -3 -9 1 -23 9
-32 9 -8 12 -15 8 -15 -3 0 -1 -7 6 -15 7 -8 17 -12 23 -8 6 3 7 1 3 -5 -3 -6
3 -16 16 -23 29 -16 88 -23 88 -11 0 6 9 8 20 5 11 -3 26 -1 33 4 6 4 29 8 49
8 l38 0 1 133 c2 162 2 155 14 164 6 4 -3 8 -18 8 -24 0 -26 -2 -17 -19 5 -11
10 -23 10 -28 -1 -4 -7 3 -15 17 -7 14 -22 25 -33 26 -19 1 -20 -3 -15 -45 3
-25 11 -49 17 -53 8 -6 8 -8 0 -8 -7 0 -12 -19 -12 -46 -1 -53 6 -73 20 -53 8
11 9 11 5 -1 -2 -8 -10 -14 -17 -12 -7 2 -10 -3 -7 -12 4 -9 0 -22 -8 -30 -8
-7 -11 -16 -8 -20 4 -3 -1 -6 -11 -6 -9 0 -15 3 -13 8 3 4 -10 7 -28 7 -19 0
-31 -4 -28 -10 4 -5 -10 5 -30 24 -20 19 -34 38 -31 43 3 4 1 8 -3 8 -11 0
-13 14 -19 127 -4 66 -1 103 9 135 10 26 12 47 6 53 -12 12 -12 35 1 35 5 0 6
-7 3 -17 -7 -18 -1 -15 49 19 29 20 98 25 98 6 0 -6 3 -9 6 -5 3 3 17 -6 30
-20 l24 -26 0 43 c0 34 -3 41 -16 36 -8 -3 -12 -2 -9 4 9 14 -19 12 -34 -2 -9
-9 -12 -9 -7 -1 12 22 -78 28 -117 8z m-73 -123 c3 -5 -1 -9 -9 -9 -8 0 -12 4
-9 9 3 4 7 8 9 8 2 0 6 -4 9 -8z m236 -122 c0 -5 -5 -10 -11 -10 -5 0 -7 5 -4
10 3 6 8 10 11 10 2 0 4 -4 4 -10z m-210 -115 c7 -9 8 -15 2 -15 -5 0 -12 7
-16 15 -3 8 -4 15 -2 15 2 0 9 -7 16 -15z"/>
<path d="M1800 2528 c14 -12 18 -19 10 -16 -13 5 -15 -22 -12 -213 2 -139 -1
-226 -8 -238 -10 -19 -7 -20 44 -19 l53 2 -8 30 c-10 37 -17 416 -8 416 4 0 9
13 11 29 4 29 4 29 -51 29 l-56 1 25 -21z"/>
<path d="M1970 2540 c0 -4 3 -10 7 -13 9 -10 10 -35 13 -247 1 -110 -3 -196
-9 -212 l-11 -28 48 0 c26 0 43 4 37 8 -11 8 -12 19 -14 195 -1 100 -4 127
-13 121 -9 -6 -9 -3 0 9 8 9 11 25 8 35 -9 28 19 49 41 31 14 -12 16 -12 9 1
-4 8 1 5 12 -7 16 -18 22 -20 31 -9 6 7 7 17 3 22 -4 4 1 2 11 -5 9 -7 17 -19
17 -25 0 -6 -5 -4 -10 4 -5 8 -10 12 -11 8 -5 -27 -4 -35 9 -50 8 -10 19 -15
25 -11 6 3 7 1 3 -5 -3 -6 0 -17 7 -24 8 -7 12 -20 10 -28 -3 -9 2 -22 11 -29
8 -7 12 -20 9 -28 -4 -10 -2 -14 4 -10 5 3 10 -8 10 -26 1 -18 4 -65 8 -104 7
-68 9 -73 32 -73 l24 0 -3 220 c-2 121 0 221 3 223 11 4 19 67 9 67 -6 0 -10
-6 -10 -12 0 -10 -2 -10 -8 0 -5 6 -20 11 -34 10 -24 -2 -25 -4 -14 -33 8 -19
10 -58 6 -110 l-6 -80 -22 48 c-13 26 -35 59 -50 74 -15 15 -26 31 -24 35 1 5
-6 12 -15 15 -10 4 -24 13 -32 21 -7 7 -19 11 -27 8 -7 -3 -14 -1 -16 4 -4 11
-78 20 -78 10z"/>
<path d="M2392 2538 c0 -7 -3 -23 -5 -34 -5 -19 -3 -20 18 -10 13 6 22 13 20
16 -4 6 65 3 71 -2 2 -2 4 -23 5 -46 2 -23 7 -42 12 -42 6 0 5 -5 0 -12 -13
-17 -15 -95 -3 -103 6 -3 10 -12 10 -18 0 -7 -4 -6 -10 3 -7 10 -10 -21 -10
-98 0 -62 -5 -122 -10 -133 -8 -15 -7 -19 4 -19 8 0 17 6 19 13 4 8 6 7 6 -3
1 -13 2 -13 11 0 6 10 10 11 10 3 0 -7 12 -13 28 -13 15 0 23 4 17 8 -5 4 -11
16 -12 27 -5 49 -4 426 1 434 4 5 22 5 47 0 22 -5 45 -6 51 -3 7 4 8 2 4 -4
-4 -7 -2 -12 3 -12 14 0 14 16 1 41 -10 17 -23 19 -149 19 -103 0 -138 -3
-139 -12z m132 -94 c3 -8 2 -12 -4 -9 -6 3 -10 10 -10 16 0 14 7 11 14 -7z
m31 -3 c3 -5 2 -12 -3 -15 -5 -3 -9 1 -9 9 0 17 3 19 12 6z"/>
<path d="M2854 2523 c1 -16 5 -34 10 -41 5 -8 3 -18 -3 -25 -9 -9 -11 -7 -6 8
l6 20 -10 -20 c-19 -42 -33 -104 -27 -120 3 -9 2 -14 -3 -11 -8 5 -27 -54 -34
-105 -2 -8 -6 -20 -10 -26 -5 -8 -3 -13 5 -13 9 0 9 -3 2 -8 -11 -7 -37 -72
-28 -72 2 0 -2 -13 -10 -29 -18 -34 -13 -41 31 -41 35 0 36 3 24 35 -5 12 -2
33 6 53 12 28 12 37 1 50 -12 15 -11 16 5 3 14 -11 23 -12 43 -2 15 6 23 7 19
1 -11 -18 82 -12 101 8 16 15 17 15 12 1 -4 -9 -1 -25 6 -35 7 -11 12 -40 10
-66 l-2 -48 53 0 53 0 -19 37 c-10 21 -19 43 -19 50 0 7 -4 13 -8 13 -5 0 -9
15 -9 33 0 39 -20 117 -34 133 -6 7 -12 30 -15 51 -3 20 -11 50 -19 65 -9 19
-10 26 -2 22 9 -5 9 -4 0 6 -6 7 -9 19 -6 28 4 9 2 13 -4 9 -6 -4 -11 -1 -10
6 2 53 -2 57 -49 57 -33 0 -43 -3 -38 -12 6 -10 4 -10 -8 0 -14 11 -15 9 -14
-15z m56 -73 c0 -10 6 -25 13 -32 8 -6 12 -22 9 -34 -2 -12 2 -25 9 -29 8 -5
10 -4 5 3 -11 18 0 14 15 -5 10 -11 10 -14 2 -9 -7 4 -13 3 -13 -1 0 -5 6 -15
13 -22 10 -11 9 -12 -2 -6 -11 6 -13 4 -7 -11 5 -10 10 -36 13 -56 5 -36 4
-38 -23 -39 -16 0 -48 -2 -71 -2 -22 -1 -39 1 -36 6 2 4 0 7 -4 7 -5 0 -9 9
-9 19 0 11 5 17 10 14 5 -4 7 3 4 15 -4 12 -3 20 2 17 12 -8 27 77 18 105 -3
8 -3 11 0 7 7 -13 31 26 32 51 0 12 5 22 10 22 6 0 10 -9 10 -20z m-60 -85
c14 -19 14 -19 -2 -6 -10 7 -18 18 -18 24 0 6 1 8 3 6 1 -2 9 -13 17 -24z
m-66 -303 c2 -4 -4 -8 -14 -8 -10 0 -16 4 -14 8 3 4 9 8 14 8 5 0 11 -4 14 -8z"/>
<path d="M3580 2535 c-6 -8 -9 -19 -5 -26 10 -15 9 -394 0 -437 l-8 -32 137 1
c120 0 136 2 136 17 0 9 3 28 6 42 5 24 5 25 -11 5 -9 -11 -18 -19 -20 -17
-14 7 -35 1 -29 -10 4 -6 3 -8 -3 -5 -5 3 -39 7 -74 9 l-64 2 5 135 5 136 40
-4 c120 -11 158 2 93 32 -28 13 -50 15 -91 8 -5 0 -5 -6 -1 -13 4 -7 3 -8 -4
-4 -6 4 -20 3 -29 -3 -16 -8 -18 -3 -17 55 3 91 4 94 66 93 29 0 62 -4 73 -9
20 -8 55 12 55 32 0 4 -56 8 -124 8 -96 0 -126 -3 -136 -15z m165 -155 c-3 -5
-12 -10 -18 -10 -7 0 -6 4 3 10 19 12 23 12 15 0z"/>
<path d="M3921 2098 c-10 -28 -2 -66 10 -46 7 10 9 8 9 -6 0 -16 2 -17 17 -5
14 12 16 12 8 0 -5 -10 -4 -12 3 -7 7 4 12 14 12 22 0 8 5 12 10 9 12 -8 13
-3 0 29 -13 34 -57 36 -69 4z m59 2 c0 -5 -2 -10 -4 -10 -3 0 -8 5 -11 10 -3
6 -1 10 4 10 6 0 11 -4 11 -10z"/>
</g>
</svg>
