<?xml version="1.0" standalone="no"?>
<!DOCTYPE svg PUBLIC "-//W3C//DTD SVG 20010904//EN"
 "http://www.w3.org/TR/2001/REC-SVG-20010904/DTD/svg10.dtd">
<svg version="1.0" xmlns="http://www.w3.org/2000/svg"
 width="500.000000pt" height="500.000000pt" viewBox="0 0 500.000000 500.000000"
 preserveAspectRatio="xMidYMid meet">

<g transform="translate(0.000000,500.000000) scale(0.100000,-0.100000)"
fill="#000000" stroke="none">
<path d="M2239 3960 c-63 -4 -120 -9 -125 -12 -5 -3 -43 -9 -84 -13 -41 -4
-77 -10 -80 -14 -3 -3 -9 -6 -15 -6 -32 -1 -105 -17 -101 -23 2 -4 -12 -8 -32
-10 -20 -1 -38 -6 -42 -10 -3 -4 -18 -8 -35 -10 -16 -2 -35 -8 -41 -13 -6 -5
-14 -6 -17 -2 -4 3 -7 1 -7 -5 0 -7 -9 -12 -20 -12 -12 0 -20 -7 -20 -17 0
-13 -3 -14 -8 -5 -6 9 -18 8 -49 -8 -23 -11 -45 -25 -49 -31 -5 -8 -3 -9 7 -4
8 5 11 4 7 0 -5 -5 -19 -10 -33 -11 -14 -1 -33 -11 -43 -21 -9 -11 -12 -12 -7
-4 8 12 7 12 -12 3 -12 -7 -27 -20 -32 -30 -6 -9 -11 -13 -11 -8 0 5 -7 3 -15
-4 -8 -7 -12 -16 -9 -21 3 -5 0 -8 -8 -7 -7 2 -12 -3 -10 -10 1 -8 -2 -11 -8
-7 -12 8 -112 -89 -103 -99 4 -3 1 -6 -6 -6 -7 0 -10 -4 -7 -9 4 -5 2 -11 -2
-13 -24 -9 -72 -106 -75 -150 -1 -10 -5 -18 -9 -18 -4 0 -8 -4 -8 -10 0 -5 8
-7 18 -4 9 2 7 -1 -5 -7 -21 -11 -23 -19 -23 -96 0 -52 4 -83 11 -83 5 0 8 -4
5 -9 -7 -11 4 -42 13 -37 3 2 7 -8 8 -22 0 -15 11 -34 23 -44 12 -10 19 -18
14 -18 -4 0 3 -11 15 -24 13 -14 29 -22 36 -20 7 3 15 -1 18 -9 8 -21 97 -40
159 -33 29 3 56 5 61 6 4 0 7 8 8 18 0 10 3 12 6 5 6 -16 29 -17 39 -1 5 7 3
8 -6 3 -8 -5 -11 -4 -6 3 4 6 14 8 23 5 10 -4 14 -2 9 5 -3 6 -1 14 5 18 8 4
9 3 5 -4 -4 -7 -1 -12 8 -12 8 0 19 7 24 16 5 8 19 21 32 27 12 7 35 28 49 46
14 19 19 31 11 26 -11 -6 -10 -3 3 12 9 11 17 23 17 28 0 4 -8 1 -17 -6 -16
-13 -17 -12 -5 3 8 10 20 14 30 11 9 -3 14 -3 10 2 -4 4 -1 17 7 29 17 23 21
81 5 71 -6 -4 -8 -11 -4 -16 3 -5 2 -9 -3 -8 -4 1 -10 0 -13 -1 -23 -8 -51
-13 -87 -14 -24 0 -39 -5 -36 -11 2 -5 -2 -2 -10 8 -8 9 -19 17 -26 17 -6 0
-10 3 -9 8 1 4 -5 21 -14 38 -19 34 -18 139 1 187 6 16 7 26 2 23 -11 -7 -8
21 4 31 4 4 5 1 1 -7 -4 -8 2 -4 14 10 11 14 34 39 49 57 27 29 27 32 12 48
-9 10 -11 15 -4 11 6 -3 13 -3 16 1 2 5 2 2 0 -5 -1 -8 3 -12 9 -9 7 2 12 11
10 18 -2 8 0 11 3 7 13 -13 47 12 41 29 -5 12 -3 13 7 5 10 -9 17 -7 29 6 22
23 41 36 57 40 7 1 45 19 85 38 39 19 82 37 96 40 13 3 27 8 30 12 3 4 18 8
35 10 16 2 35 8 41 13 6 5 14 6 17 3 10 -10 78 6 72 17 -4 5 -2 9 4 9 5 0 13
-5 16 -11 5 -6 12 -4 22 8 8 10 11 12 7 4 -4 -9 -2 -12 7 -9 8 3 22 1 32 -4
15 -7 16 -12 6 -24 -6 -8 -17 -14 -25 -14 -18 0 -29 -21 -14 -30 8 -5 7 -9 -5
-13 -9 -4 -13 -3 -10 3 3 6 2 10 -4 10 -18 0 -23 -21 -9 -38 11 -15 11 -16 -3
-4 -14 11 -22 8 -53 -21 -20 -19 -36 -41 -36 -48 1 -10 5 -8 15 5 8 11 15 15
15 9 0 -5 -9 -18 -21 -29 -11 -10 -19 -13 -17 -7 2 6 -1 10 -7 10 -5 -1 -9
-10 -9 -19 1 -9 -3 -16 -8 -15 -6 1 -15 -7 -21 -18 -7 -11 -15 -22 -18 -25 -6
-5 -42 -69 -44 -80 -1 -3 -5 -13 -9 -23 -5 -10 -3 -23 3 -31 9 -11 8 -14 -6
-12 -14 1 -22 -16 -40 -78 -13 -44 -24 -106 -26 -137 -1 -31 -5 -55 -9 -52 -5
2 -8 -34 -8 -81 0 -51 4 -86 10 -86 6 0 10 -5 10 -11 0 -5 -4 -8 -9 -5 -5 4
-6 -10 -1 -32 4 -20 13 -65 20 -100 9 -42 16 -59 21 -50 5 8 6 -1 2 -21 -4
-26 -3 -32 6 -27 8 5 11 3 10 -5 -5 -23 24 -108 35 -102 5 4 7 -1 3 -10 -7
-19 20 -50 35 -41 6 4 5 -2 -1 -15 -8 -14 -8 -21 -1 -21 5 0 9 -3 8 -7 -1 -5
3 -18 10 -29 6 -12 8 -24 5 -28 -3 -3 -2 -6 4 -6 6 0 16 -14 22 -31 6 -17 15
-28 21 -24 5 3 7 0 4 -8 -3 -8 0 -18 5 -22 6 -3 9 -10 6 -15 -3 -4 3 -14 12
-21 12 -10 14 -10 9 -1 -11 18 -1 15 15 -5 10 -11 10 -14 2 -9 -7 4 -13 2 -13
-3 0 -6 5 -11 11 -11 5 0 7 -4 4 -10 -3 -5 1 -10 9 -10 8 0 13 -6 11 -12 -7
-17 66 -128 83 -128 7 0 10 -5 7 -10 -9 -14 34 -72 47 -64 7 4 8 2 4 -5 -4 -6
0 -24 9 -38 14 -21 19 -23 27 -12 7 10 8 8 5 -9 -6 -27 11 -19 23 12 7 16 9
17 9 4 1 -9 -3 -20 -9 -23 -5 -3 -10 -14 -10 -23 0 -15 2 -15 11 -2 8 12 9 10
4 -7 -4 -15 1 -29 14 -42 12 -12 18 -21 14 -21 -5 -1 3 -10 17 -21 14 -12 24
-23 23 -25 -8 -12 -1 -24 13 -24 8 0 12 -5 8 -11 -3 -6 -3 -14 2 -18 5 -3 14
-15 21 -26 6 -11 16 -19 23 -17 6 1 9 -2 6 -7 -4 -5 -2 -12 4 -16 5 -3 10 -1
10 6 0 7 3 9 6 6 4 -4 2 -13 -5 -21 -9 -11 -6 -19 14 -37 13 -13 25 -30 25
-37 0 -8 5 -10 12 -6 7 5 9 2 5 -8 -3 -9 1 -25 9 -36 7 -11 29 -49 47 -84 49
-94 48 -92 59 -77 7 10 8 9 4 -5 -7 -20 13 -86 26 -86 4 0 8 -10 8 -23 0 -13
6 -32 14 -42 8 -11 11 -26 8 -34 -3 -8 -1 -12 4 -9 5 4 10 -4 11 -15 2 -27 11
-85 25 -157 5 -30 10 -62 10 -70 0 -22 74 -26 82 -4 3 9 4 20 0 25 -3 5 0 9 6
9 6 0 9 4 5 9 -3 5 -1 12 4 16 6 3 8 12 5 20 -3 7 2 25 12 40 15 23 15 28 3
36 -12 7 -12 9 1 9 10 0 25 27 43 77 16 43 40 99 53 126 14 26 23 51 20 56 -4
5 -3 11 2 13 14 6 69 123 66 141 -1 9 4 17 12 17 8 0 14 5 14 10 0 6 0 12 0
15 1 2 16 32 35 66 36 63 45 96 23 83 -9 -5 -8 -2 1 10 11 13 16 14 22 4 7
-10 9 -10 10 2 1 8 1 18 0 23 0 4 2 7 7 7 4 0 13 15 21 33 8 17 22 44 33 59
10 14 18 33 18 42 0 9 5 16 11 16 5 0 7 5 4 10 -3 5 -3 10 2 10 12 0 33 51 26
64 -3 6 -3 8 2 4 9 -9 48 60 47 85 -1 10 8 23 19 30 10 6 19 19 19 27 0 9 7
25 15 36 8 10 15 26 15 35 0 8 6 21 13 27 6 7 12 16 13 20 0 4 17 40 36 80 20
40 37 75 37 77 0 3 7 18 15 34 9 16 12 31 9 35 -4 3 0 6 7 6 7 0 10 3 7 6 -3
4 -2 14 2 23 6 10 4 23 -5 35 -7 10 -11 23 -8 28 9 14 24 -1 17 -17 -3 -8 0
-15 6 -15 6 0 11 7 11 15 0 9 7 27 16 40 10 15 12 25 5 25 -6 0 -11 -4 -11
-10 0 -5 -6 -10 -12 -10 -7 1 -3 9 10 20 22 18 59 90 46 90 -4 0 -1 7 6 15 6
8 9 24 5 37 -5 18 -4 20 4 8 9 -13 11 -12 12 5 3 31 4 38 14 65 5 14 9 30 10
35 0 6 6 28 12 50 12 41 19 88 32 223 7 68 5 107 -13 252 -6 48 -14 85 -27
117 -8 22 -12 24 -19 13 -6 -8 -10 -10 -10 -4 0 5 4 14 9 20 10 10 -22 78 -32
68 -3 -3 -3 3 0 15 3 12 1 21 -6 21 -6 0 -10 3 -9 8 1 4 -13 30 -31 57 -18 28
-30 42 -27 32 4 -12 2 -16 -5 -11 -8 4 -9 -1 -5 -17 6 -20 5 -21 -4 -7 -7 12
-8 24 -1 36 13 25 2 99 -15 99 -7 0 -15 -6 -18 -14 -3 -7 -13 -13 -22 -13 -10
0 -14 -6 -11 -14 4 -9 0 -12 -12 -9 -16 4 -49 -23 -44 -36 2 -3 -4 -6 -11 -6
-8 0 -26 -13 -41 -30 -15 -16 -24 -23 -19 -15 5 8 -6 4 -23 -10 -18 -14 -35
-33 -38 -43 -4 -9 -11 -14 -17 -11 -7 5 -9 1 -5 -9 3 -9 3 -16 -1 -16 -22 4
-41 -10 -135 -103 -140 -139 -199 -207 -191 -220 4 -7 2 -8 -4 -4 -6 4 -19 -6
-29 -21 -10 -15 -24 -35 -32 -43 -20 -21 -75 -112 -78 -129 -1 -8 -6 -17 -10
-20 -15 -10 -44 -81 -38 -91 4 -6 1 -9 -7 -8 -7 2 -13 -4 -14 -12 -1 -8 -6
-26 -11 -40 -6 -14 -9 -28 -6 -32 2 -5 0 -8 -5 -8 -27 0 -41 -261 -16 -301 5
-8 10 -22 11 -33 4 -26 43 -77 54 -71 5 4 6 -2 3 -12 -5 -16 -3 -15 11 2 17
20 17 20 13 0 -4 -28 56 -58 97 -49 17 3 36 6 43 7 9 0 12 8 8 21 -5 20 -4 20
8 3 13 -17 17 -15 60 27 50 50 55 59 29 49 -15 -6 -16 -5 -3 9 8 9 18 14 21
12 11 -6 32 55 26 76 -3 11 -1 18 4 14 5 -3 9 16 9 42 0 32 -5 51 -17 61 -10
8 -13 12 -6 9 8 -5 10 5 7 31 -3 20 -7 39 -9 42 -5 4 -9 -35 -6 -52 1 -5 -3
-6 -8 -3 -9 6 -34 -18 -27 -25 3 -2 -10 -4 -28 -3 -89 4 -127 88 -95 209 6 22
11 48 12 58 1 9 5 17 9 17 4 0 8 13 8 29 0 16 4 31 9 33 5 2 20 26 33 53 39
79 62 120 71 123 4 2 3 10 -3 17 -8 10 -6 13 7 11 11 0 17 5 17 17 -1 9 4 17
12 17 7 0 16 5 20 12 5 8 2 9 -9 5 -9 -3 -19 -2 -22 4 -4 5 -3 9 2 8 25 -4 41
5 67 38 16 20 23 32 15 28 -12 -8 -12 -6 0 8 7 9 17 14 22 11 5 -3 9 -1 9 4 0
21 26 6 28 -16 1 -14 10 -34 20 -45 9 -10 16 -21 15 -23 -2 -2 -3 -10 -3 -16
0 -9 3 -9 9 1 7 10 9 8 9 -10 0 -21 60 -202 76 -227 3 -5 6 -25 8 -45 1 -21 5
-37 8 -37 7 0 9 -23 13 -220 2 -128 0 -188 -11 -224 -7 -26 -11 -54 -8 -62 3
-7 1 -16 -5 -19 -5 -4 -7 -11 -4 -16 4 -5 1 -9 -4 -9 -6 0 -9 -10 -7 -22 2
-13 -1 -28 -6 -35 -5 -6 -16 -40 -24 -75 -8 -35 -17 -72 -20 -83 l-6 -20 16
20 c16 19 16 19 5 -7 -7 -15 -15 -25 -19 -23 -9 6 -23 -25 -15 -33 3 -3 5 0 5
7 0 7 4 9 10 6 6 -4 5 -11 -3 -20 -6 -7 -14 -11 -16 -9 -3 2 -17 -24 -32 -58
-18 -44 -24 -68 -17 -80 6 -14 5 -16 -7 -12 -15 6 -19 -3 -16 -41 2 -17 0 -17
-8 -5 -10 13 -11 13 -11 0 0 -8 -18 -52 -40 -98 -44 -90 -46 -97 -27 -86 6 5
0 -7 -16 -25 -15 -18 -25 -37 -21 -42 3 -5 0 -9 -6 -9 -7 0 -10 -7 -6 -15 3
-8 2 -15 -2 -15 -5 0 -17 -19 -27 -42 -37 -85 -88 -204 -100 -236 l-12 -33
-17 26 c-10 15 -15 33 -12 41 3 8 1 14 -4 14 -5 0 -7 8 -5 18 2 10 -6 43 -17
73 -11 29 -21 59 -22 64 -8 34 -48 105 -57 100 -5 -4 -8 -1 -7 7 2 7 -3 12
-10 10 -8 -1 -11 2 -7 8 3 6 10 8 15 5 4 -3 6 4 3 16 -3 11 -11 18 -18 15 -9
-3 -11 2 -7 16 4 15 2 19 -7 14 -8 -5 -11 -3 -9 5 3 17 -22 79 -32 79 -5 0
-14 16 -20 35 -7 21 -16 32 -23 28 -6 -4 -8 0 -4 9 8 22 -3 30 -21 15 -13 -10
-14 -9 -4 8 8 16 6 27 -10 55 -12 19 -31 43 -42 53 -12 10 -15 15 -7 11 9 -5
12 -3 7 4 -4 7 -14 12 -22 12 -8 0 -14 9 -14 19 0 11 -5 23 -10 26 -6 4 -8 11
-5 16 4 5 1 9 -5 9 -6 0 -8 5 -5 10 3 6 -1 10 -9 10 -10 0 -13 6 -9 17 4 11 3
14 -5 9 -7 -4 -10 -2 -7 6 3 8 -5 25 -17 38 -13 14 -23 27 -23 30 -1 10 -28
55 -42 68 -7 7 -19 10 -25 6 -7 -4 -10 -4 -6 1 4 4 2 15 -5 24 -11 14 -10 15
7 1 15 -12 14 -6 -8 38 -14 28 -30 52 -34 52 -4 0 -8 10 -9 22 -1 12 -11 34
-23 49 -11 16 -20 34 -20 41 -1 20 -26 49 -35 40 -5 -4 -5 -1 -1 5 4 7 -3 34
-15 60 -12 27 -22 51 -21 55 1 4 -6 24 -15 45 -9 21 -16 41 -15 45 1 4 -3 20
-10 35 -6 15 -10 34 -9 42 1 7 -2 10 -7 7 -5 -3 -8 7 -6 21 1 15 0 32 -4 38
-9 14 -11 38 -12 185 0 118 1 130 34 222 19 53 31 99 28 103 -4 4 -2 6 3 5 24
-5 26 2 9 28 -16 24 -16 26 0 13 22 -18 46 0 28 22 -15 18 -3 30 14 16 16 -13
37 -2 30 16 -3 8 1 19 9 25 16 13 9 43 -8 33 -6 -4 -7 -1 -2 7 6 10 11 9 21
-5 12 -16 11 -21 -3 -38 -10 -10 15 1 55 26 40 25 93 50 118 56 25 6 43 15 40
19 -7 12 138 6 162 -7 12 -7 26 -9 31 -7 5 3 12 -2 15 -11 6 -14 8 -14 22 3
15 18 15 18 5 -2 -6 -12 -7 -25 -3 -29 4 -5 1 -5 -5 -1 -7 4 -14 2 -14 -3 -2
-15 -4 -23 -16 -52 -13 -29 -6 -82 10 -72 6 4 7 1 2 -6 -13 -22 51 -71 91 -71
26 0 33 3 28 13 -5 7 -1 7 10 -2 15 -13 19 -13 27 0 5 8 9 10 9 6 0 -4 6 -2
14 5 8 7 12 16 10 19 -2 4 3 9 11 13 8 3 15 10 15 16 0 6 -6 8 -12 5 -7 -4 -5
0 5 8 18 15 23 52 8 61 -5 4 -8 14 -7 23 8 49 -176 169 -218 143 -14 -9 -21
-9 -30 0 -8 8 -6 10 9 5 20 -7 20 -6 1 9 -19 15 -41 20 -93 19 -13 0 -23 4
-23 8 0 5 -5 9 -11 9 -5 0 -7 -4 -4 -10 3 -5 1 -10 -4 -10 -6 0 -11 4 -11 9 0
20 -184 30 -351 21z m-164 -40 c3 -6 -1 -7 -9 -4 -18 7 -21 14 -7 14 6 0 13
-4 16 -10z m1520 0 c4 -6 1 -9 -6 -8 -7 2 -13 -2 -14 -9 0 -6 -3 -14 -7 -18
-9 -9 -5 16 5 33 10 15 14 15 22 2z m-85 -90 c8 -5 11 -10 5 -10 -5 0 -17 5
-25 10 -8 5 -10 10 -5 10 6 0 17 -5 25 -10z m-576 -18 c3 -5 -1 -9 -9 -9 -8 0
-12 4 -9 9 3 4 7 8 9 8 2 0 6 -4 9 -8z m553 2 c-3 -3 -12 -4 -19 -1 -8 3 -5 6
6 6 11 1 17 -2 13 -5z m-1097 -28 c-7 -7 -13 -7 -20 0 -6 6 -3 10 10 10 13 0
16 -4 10 -10z m-560 -36 c-8 -5 -19 -10 -25 -10 -5 0 -3 5 5 10 8 5 20 10 25
10 6 0 3 -5 -5 -10z m404 2 c3 -5 -1 -9 -9 -9 -8 0 -12 4 -9 9 3 4 7 8 9 8 2
0 6 -4 9 -8z m544 -12 c-7 -10 -14 -17 -17 -15 -4 4 18 35 25 35 2 0 -1 -9 -8
-20z m-1274 -8 c2 -4 -4 -8 -14 -8 -10 0 -16 4 -14 8 3 4 9 8 14 8 5 0 11 -4
14 -8z m652 -66 c0 -14 -6 -22 -13 -19 -9 4 -9 9 0 24 15 24 15 24 13 -5z
m-719 -2 c-3 -3 -12 -4 -19 -1 -8 3 -5 6 6 6 11 1 17 -2 13 -5z m637 -62 c3
-5 -1 -9 -9 -9 -8 0 -12 4 -9 9 3 4 7 8 9 8 2 0 6 -4 9 -8z m-807 -54 c-3 -8
-6 -5 -6 6 -1 11 2 17 5 13 3 -3 4 -12 1 -19z m290 -11 c0 -8 -6 -14 -14 -14
-9 0 -10 4 -2 14 6 7 12 13 14 13 1 0 2 -6 2 -13z m-285 -19 c-16 -16 -15 -31
1 -22 6 4 8 3 4 -1 -12 -14 -38 -15 -30 -2 11 21 25 37 31 37 3 0 1 -5 -6 -12z
m-82 -107 c0 -6 -4 -12 -8 -15 -5 -3 -9 1 -9 9 0 8 4 15 9 15 4 0 8 -4 8 -9z
m2590 -56 c0 -5 -5 -3 -10 5 -5 8 -10 20 -10 25 0 6 5 3 10 -5 5 -8 10 -19 10
-25z m-363 -97 c-3 -8 -6 -5 -6 6 -1 11 2 17 5 13 3 -3 4 -12 1 -19z m-483 -4
c3 -8 2 -12 -4 -9 -6 3 -10 10 -10 16 0 14 7 11 14 -7z m476 -29 c14 -19 14
-19 -2 -6 -10 7 -18 18 -18 24 0 6 1 8 3 6 1 -2 9 -13 17 -24z m-1700 -29 c0
-2 -7 -7 -16 -10 -8 -3 -12 -2 -9 4 6 10 25 14 25 6z m1713 -11 c-3 -9 -8 -14
-10 -11 -3 3 -2 9 2 15 9 16 15 13 8 -4z m14 -37 c2 -17 0 -19 -7 -8 -5 8 -6
18 -4 22 8 12 10 10 11 -14z m-1260 -95 c-4 -3 1 -16 10 -27 18 -21 18 -21 -4
-2 -20 16 -23 36 -6 36 4 0 3 -3 0 -7z m10 -75 c-3 -8 -6 -5 -6 6 -1 11 2 17
5 13 3 -3 4 -12 1 -19z m580 -70 c-3 -8 -6 -5 -6 6 -1 11 2 17 5 13 3 -3 4
-12 1 -19z m233 -54 c0 -8 -19 -13 -24 -6 -3 5 1 9 9 9 8 0 15 -2 15 -3z
m-1013 -86 c-3 -8 -6 -5 -6 6 -1 11 2 17 5 13 3 -3 4 -12 1 -19z m363 -92 c0
-2 -8 -10 -17 -17 -16 -13 -17 -12 -4 4 13 16 21 21 21 13z m695 -96 c-3 -5
-12 -10 -18 -10 -7 0 -6 4 3 10 19 12 23 12 15 0z m-171 -16 c3 -8 2 -12 -4
-9 -6 3 -10 10 -10 16 0 14 7 11 14 -7z m616 -218 c0 -2 -7 -9 -15 -16 -13
-11 -14 -10 -9 4 5 14 24 23 24 12z m-961 -40 c-3 -3 -11 5 -18 17 -13 21 -12
21 5 5 10 -10 16 -20 13 -22z m-315 -46 c10 -13 9 -13 -6 -1 -10 7 -18 21 -17
30 0 13 1 14 6 1 3 -8 11 -22 17 -30z m454 -145 c-3 -3 -9 2 -12 12 -6 14 -5
15 5 6 7 -7 10 -15 7 -18z m37 -74 c-6 -5 -25 10 -25 20 0 5 6 4 14 -3 8 -7
12 -15 11 -17z m491 -76 c-1 -8 -5 -18 -9 -21 -4 -4 -2 -13 3 -19 7 -9 5 -17
-7 -26 -16 -13 -17 -12 -4 4 12 15 9 21 -11 18 -14 -2 -8 17 7 23 8 3 15 9 14
13 -2 12 0 23 5 23 2 0 3 -7 2 -15z m-723 -19 c3 -8 0 -16 -6 -19 -7 -3 -13 3
-13 14 0 22 12 25 19 5z m640 -171 c-3 -9 -8 -14 -10 -11 -3 3 -2 9 2 15 9 16
15 13 8 -4z m-405 -241 c1 -1 -5 -7 -15 -15 -15 -12 -16 -12 -11 2 4 9 1 23
-5 30 -9 9 -6 9 8 -1 11 -8 21 -15 23 -16z m269 -186 c-3 -8 -6 -5 -6 6 -1 11
2 17 5 13 3 -3 4 -12 1 -19z m-80 -180 c-3 -8 -6 -5 -6 6 -1 11 2 17 5 13 3
-3 4 -12 1 -19z m3 -124 c0 -8 -19 -13 -24 -6 -3 5 1 9 9 9 8 0 15 -2 15 -3z"/>
</g>
</svg>
